<svg xmlns="http://www.w3.org/2000/svg" xmlns:xlink="http://www.w3.org/1999/xlink" width="1920" height="1076" viewBox="0 0 1920 1076">
  <defs>
    <clipPath id="clip-path">
      <rect id="Rectangle_99" data-name="Rectangle 99" width="1920" height="1076" transform="translate(0 2276)" fill="#f6f6f6"/>
    </clipPath>
  </defs>
  <g id="Mask_Group_1" data-name="Mask Group 1" transform="translate(0 -2276)" clip-path="url(#clip-path)">
    <g id="Group_1527" data-name="Group 1527" transform="translate(-326.525 1650.554)" style="mix-blend-mode: normal;isolation: isolate">
      <path id="Path_1470" data-name="Path 1470" d="M316.08,273.225c0-95.172-44.35-180.617-115.739-222.973l-15.648-9.277-15.658,9.277C97.645,92.608,53.295,178.053,53.295,273.225c0,88.159,38.379,167.493,100.722,212.444l1,390.907a30.671,30.671,0,0,0,61.341-.16l-1-390.746C277.7,440.718,316.08,361.384,316.08,273.225m-201.444,0c0-64.978,27.009-125.367,70.057-159.448,43.048,34.082,70.047,94.471,70.047,159.448,0,64.958-27,125.357-70.047,159.438-43.048-34.082-70.057-94.481-70.057-159.438" transform="translate(1877.021 878.953)" fill="#fafafa"/>
      <path id="Path_1471" data-name="Path 1471" d="M136.284,491.947V435.234h46.494c112.924,0,204.47-91.545,204.47-204.47V84.37H279.413c-112.924,0-204.47,91.546-204.47,204.47V491.947c0,112.934,91.545,204.47,204.47,204.47h29.524a30.655,30.655,0,1,0,0-61.311H279.443A143.154,143.154,0,0,1,136.284,491.947m0-203.107A143.161,143.161,0,0,1,279.443,145.681h46.464v85.084A143.161,143.161,0,0,1,182.748,373.924H136.284Z" transform="translate(2072.245 1270.294)" fill="#fafafa"/>
      <path id="Path_1472" data-name="Path 1472" d="M134.539,74.626H26.7v146.4c0,112.924,91.546,204.46,204.46,204.46h46.5V586.732A143.154,143.154,0,0,1,134.509,729.89H105.016a30.656,30.656,0,0,0,0,61.311h29.523c112.924,0,204.47-91.536,204.47-204.47V279.1c0-112.924-91.546-204.47-204.47-204.47M277.668,364.18H231.174A143.135,143.135,0,0,1,88.045,221.051V135.937h46.494A143.135,143.135,0,0,1,277.668,279.066Z" transform="translate(1637.22 1182.422)" fill="#fafafa"/>
      <path id="Path_1473" data-name="Path 1473" d="M1117.37,344l.291-.19c-.591-.942-1.343-1.773-1.954-2.695C994.568,137.109,772.1,0,518.106,0,330.9,0,169.606,56.994,30.885,199.432c-8.906,9.137-23.643,36.145-.331,57.694,10.689,9.888,23.653,13.444,37.478,13.6h.641c11.4,0,20.647-3.867,26.839-6.482,23.282-9.838,46.344-20.387,69.385-30.926,56.342-25.8,109.578-50.171,166.581-64.647,68-17.271,132.5-15.348,183.762,4.578a152.2,152.2,0,0,1-60.309,12.082c-10.569-.17-21.178-1.352-31.747-2.474-23.843-2.555-48.277-4.468-74.415.832-58.235,11.811-81.958,56.873-91.525,88.38a41.381,41.381,0,0,0,22.631,49.82c27.63,12.5,60.079,17.662,81.277,15.869,18.423-1.553,35.8-3.066,51.814-.972,19.295,2.484,38.64,10.269,59.1,18.523,10.459,4.218,20.948,8.435,31.577,12.072a319.255,319.255,0,0,0,103.006,16.78c63.976,0,128.222-18.4,181.238-53.707,7.243-4.829,14.406-10,21.539-15.2,19.615-14.246,38.159-27.69,57.895-31.978,13.234-2.9,29.223-1.994,48.929,2.725,74.174,17.782,123.273,46.023,150.211,86.086a632.421,632.421,0,0,1,88.09,322.523c0,253.648-147.016,478.916-376.9,581.341a28.869,28.869,0,0,0-14.847,37.057,29.253,29.253,0,0,0,39.271,15.728c250.493-111.922,410.652-357.566,410.652-634.126A690.1,690.1,0,0,0,1117.37,344M854.965,226.45c-31.667,6.872-57.173,25.4-79.714,41.745-6.492,4.729-12.983,9.447-19.615,13.865-67.342,44.831-156.714,56.432-233.172,30.295-9.658-3.3-19.155-7.153-28.672-10.98-22.952-9.257-46.714-18.834-73.413-22.26-22.04-2.855-43.439-1.042-64.086.691-14.657,1.222-28.892,2.4-41.966,1.763,8.525-19.986,26.538-36.356,47.576-41.224,16.46-3.807,35.194-1.783,55.09.331,12.322,1.312,24.7,2.6,37,2.805,47.987.22,97.777-16.7,137.859-49.209l29.694-24.1L590.377,148C521.271,98.81,421.742,85.806,317.162,112.3c-59.107,15.007-114.577,39.862-168.284,64.426A630.87,630.87,0,0,1,518.106,58.146c171.861,0,327.923,68.594,442.56,179.7-9.908-3.005-20.146-5.831-30.876-8.405-28.391-6.782-52.9-7.754-74.825-3" transform="translate(1559.037 509.445)" fill="#fafafa"/>
      <path id="Path_1475" data-name="Path 1475" d="M430.2,1035.811a29.581,29.581,0,0,0-12.352-40.623C201.564,883.666,62.673,657.257,60.209,410.611,58.536,242.457,94.5,168.283,150.692,73.882c8.085-13.584,2.344-31.287-11.31-39.261l-.651-.381c-14.657-8.555-32.258-2.384-41.385,11.922C33.811,145.812-2.154,226.728.1,410.611c3.286,269.037,154.149,515.963,390.015,637.713a29.779,29.779,0,0,0,39.792-11.981l.291-.531" transform="translate(1396.401 782.982)" fill="#fafafa"/>
    </g>
  </g>
</svg>
