<svg xmlns="http://www.w3.org/2000/svg" xmlns:xlink="http://www.w3.org/1999/xlink" width="113.299" height="120.615" viewBox="0 0 113.299 120.615">
  <defs>
    <clipPath id="clip-path">
      <rect id="Rectangle_14" data-name="Rectangle 14" width="113.299" height="120.616" fill="none"/>
    </clipPath>
  </defs>
  <g id="Group_1559" data-name="Group 1559" transform="translate(0)">
    <g id="Group_1514" data-name="Group 1514" transform="translate(0)" clip-path="url(#clip-path)">
      <path id="Path_58" data-name="Path 58" d="M74.942,60.107c0-7.84-3.653-14.879-9.534-18.368l-1.289-.764-1.29.764c-5.881,3.489-9.534,10.528-9.534,18.368,0,7.262,3.162,13.8,8.3,17.5l.083,32.2a2.527,2.527,0,0,0,5.053-.013l-.083-32.189c5.136-3.7,8.3-10.238,8.3-17.5m-16.594,0c0-5.353,2.225-10.327,5.771-13.135,3.546,2.808,5.77,7.782,5.77,13.135s-2.224,10.327-5.77,13.134c-3.546-2.808-5.771-7.783-5.771-13.134" transform="translate(-9.313 -7.16)" fill="#8dc63f"/>
      <path id="Path_59" data-name="Path 59" d="M80,117.945v-4.672h3.83A16.844,16.844,0,0,0,100.67,96.43V84.37H91.787a16.844,16.844,0,0,0-16.844,16.844v16.731a16.843,16.843,0,0,0,16.844,16.844h2.432a2.525,2.525,0,1,0,0-5.051h-2.43A11.793,11.793,0,0,1,80,117.945m0-16.731A11.793,11.793,0,0,1,91.789,89.421h3.828V96.43a11.793,11.793,0,0,1-11.793,11.793H80Z" transform="translate(-13.095 -14.743)" fill="#8dc63f"/>
      <path id="Path_60" data-name="Path 60" d="M35.587,74.626H26.7v12.06a16.843,16.843,0,0,0,16.843,16.843h3.831v13.283A11.793,11.793,0,0,1,35.585,128.6h-2.43a2.525,2.525,0,0,0,0,5.051h2.432a16.843,16.843,0,0,0,16.844-16.844V91.47A16.844,16.844,0,0,0,35.587,74.626M47.378,98.479h-3.83A11.791,11.791,0,0,1,31.757,86.688V79.677h3.83A11.791,11.791,0,0,1,47.378,91.467Z" transform="translate(-4.666 -13.04)" fill="#8dc63f"/>
      <path id="Path_61" data-name="Path 61" d="M108.594,28.339l.024-.016c-.049-.078-.111-.146-.161-.222A57.239,57.239,0,0,0,59.229,0C43.807,0,30.52,4.7,19.093,16.43a3.28,3.28,0,0,0-.027,4.753A4.431,4.431,0,0,0,22.153,22.3h.053a5.539,5.539,0,0,0,2.211-.534c1.918-.81,3.818-1.679,5.716-2.548A81.382,81.382,0,0,1,43.855,13.9c5.6-1.423,10.915-1.264,15.138.377a12.538,12.538,0,0,1-4.968,1c-.871-.014-1.745-.111-2.615-.2a19.537,19.537,0,0,0-6.13.068,9.882,9.882,0,0,0-7.54,7.28,3.409,3.409,0,0,0,1.864,4.1,14.815,14.815,0,0,0,6.7,1.307,20.51,20.51,0,0,1,4.268-.08,20.472,20.472,0,0,1,4.868,1.526c.862.347,1.726.695,2.6.994a26.3,26.3,0,0,0,8.485,1.382,27.115,27.115,0,0,0,14.93-4.424c.6-.4,1.187-.824,1.774-1.252A13.786,13.786,0,0,1,88,23.337a9.118,9.118,0,0,1,4.031.224c6.11,1.465,10.155,3.791,12.374,7.091a52.4,52.4,0,0,1-23.792,74.458,2.378,2.378,0,0,0-1.223,3.053,2.41,2.41,0,0,0,3.235,1.3,57.182,57.182,0,0,0,25.974-81.12M86.978,18.655a17.783,17.783,0,0,0-6.567,3.439c-.535.39-1.07.778-1.616,1.142a22.322,22.322,0,0,1-19.208,2.5c-.8-.272-1.578-.589-2.362-.9a24.333,24.333,0,0,0-6.048-1.834,24.568,24.568,0,0,0-5.279.057,26.989,26.989,0,0,1-3.457.145,5.85,5.85,0,0,1,3.919-3.4,14.185,14.185,0,0,1,4.538.027c1.015.108,2.035.215,3.048.231A18.084,18.084,0,0,0,65.3,16l2.446-1.986-2.567-1.826c-5.693-4.052-13.892-5.123-22.507-2.94a82.293,82.293,0,0,0-13.863,5.307,52.268,52.268,0,0,1,66.873,5.035c-.816-.248-1.66-.48-2.543-.692a13.77,13.77,0,0,0-6.164-.247" transform="translate(-3.151 0)" fill="#8dc63f"/>
      <path id="Path_62" data-name="Path 62" d="M66.131,138.441A3.438,3.438,0,1,0,62.693,135a3.438,3.438,0,0,0,3.438,3.438" transform="translate(-10.955 -22.989)" fill="#8dc63f"/>
      <path id="Path_63" data-name="Path 63" d="M35.438,113.161a2.437,2.437,0,0,0-1.018-3.346A54.9,54.9,0,0,1,4.96,61.659C4.822,47.807,7.785,41.7,12.414,33.92a2.389,2.389,0,0,0-.932-3.234l-.054-.031a2.53,2.53,0,0,0-3.409.982C2.785,39.846-.177,46.511.008,61.659a59.994,59.994,0,0,0,32.128,52.533,2.453,2.453,0,0,0,3.278-.987l.024-.044" transform="translate(0 -5.3)" fill="#8dc63f"/>
    </g>
  </g>
</svg>
