<svg xmlns="http://www.w3.org/2000/svg" xmlns:xlink="http://www.w3.org/1999/xlink" width="113.299" height="111.64" viewBox="0 0 113.299 111.64">
  <defs>
    <clipPath id="clip-path">
      <rect id="Rectangle_13" data-name="Rectangle 13" width="113.299" height="111.64" fill="none"/>
    </clipPath>
  </defs>
  <g id="Group_1555" data-name="Group 1555" transform="translate(0)">
    <g id="Group_1512" data-name="Group 1512" transform="translate(0)" clip-path="url(#clip-path)">
      <path id="Path_44" data-name="Path 44" d="M108.594,28.339l.024-.016c-.049-.078-.111-.146-.161-.222A57.239,57.239,0,0,0,59.229,0C43.807,0,30.52,4.7,19.093,16.43a3.28,3.28,0,0,0-.027,4.753A4.431,4.431,0,0,0,22.153,22.3h.053a5.539,5.539,0,0,0,2.211-.534c1.918-.81,3.818-1.679,5.716-2.548A81.382,81.382,0,0,1,43.855,13.9c5.6-1.423,10.915-1.264,15.138.377a12.538,12.538,0,0,1-4.968,1c-.871-.014-1.745-.111-2.615-.2a19.537,19.537,0,0,0-6.13.068,9.882,9.882,0,0,0-7.54,7.28,3.409,3.409,0,0,0,1.864,4.1,14.815,14.815,0,0,0,6.7,1.307,20.51,20.51,0,0,1,4.268-.08,20.472,20.472,0,0,1,4.868,1.526c.862.347,1.726.7,2.6.994a26.3,26.3,0,0,0,8.485,1.382,27.115,27.115,0,0,0,14.93-4.424c.6-.4,1.187-.824,1.774-1.252A13.786,13.786,0,0,1,88,23.337a9.118,9.118,0,0,1,4.031.224c6.11,1.465,10.155,3.791,12.374,7.091a52.4,52.4,0,0,1-23.792,74.458,2.378,2.378,0,0,0-1.223,3.053,2.41,2.41,0,0,0,3.235,1.3,57.182,57.182,0,0,0,25.974-81.12M86.978,18.655a17.783,17.783,0,0,0-6.567,3.439c-.535.39-1.07.778-1.616,1.142a22.322,22.322,0,0,1-19.208,2.5c-.8-.272-1.578-.589-2.362-.9a24.333,24.333,0,0,0-6.048-1.834,24.568,24.568,0,0,0-5.279.057,26.989,26.989,0,0,1-3.457.145,5.85,5.85,0,0,1,3.919-3.4,14.185,14.185,0,0,1,4.538.027c1.015.108,2.035.215,3.048.231A18.084,18.084,0,0,0,65.3,16l2.446-1.986-2.567-1.826c-5.693-4.052-13.892-5.123-22.507-2.94a82.293,82.293,0,0,0-13.863,5.307,52.268,52.268,0,0,1,66.873,5.035c-.816-.248-1.66-.48-2.543-.692a13.77,13.77,0,0,0-6.164-.247" transform="translate(-3.151 0)" fill="#8dc63f"/>
      <path id="Path_45" data-name="Path 45" d="M35.438,113.161a2.437,2.437,0,0,0-1.018-3.346A54.9,54.9,0,0,1,4.96,61.659C4.822,47.807,7.785,41.7,12.414,33.92a2.389,2.389,0,0,0-.932-3.234l-.054-.031a2.53,2.53,0,0,0-3.409.982C2.785,39.846-.177,46.511.008,61.659a59.994,59.994,0,0,0,32.128,52.533,2.453,2.453,0,0,0,3.278-.987l.024-.044" transform="translate(0 -5.3)" fill="#8dc63f"/>
      <path id="Path_46" data-name="Path 46" d="M72.266,106.123a2.043,2.043,0,0,1-2.041-2.041v-2.792a10.216,10.216,0,0,1,3.8-7.976,14.962,14.962,0,0,0-9.42-26.6h-.2a14.963,14.963,0,0,0-9.25,26.551A10.347,10.347,0,0,1,59,101.291v2.791a2.041,2.041,0,0,1-4.082,0v-2.791a6.282,6.282,0,0,0-2.352-4.862A19.044,19.044,0,0,1,64.34,62.639l.274,0a19.044,19.044,0,0,1,11.975,33.85,6.15,6.15,0,0,0-2.283,4.8v2.792a2.043,2.043,0,0,1-2.041,2.041" transform="translate(-7.962 -10.945)" fill="#8dc63f"/>
      <path id="Path_47" data-name="Path 47" d="M60.011,124.44a2.041,2.041,0,0,1,0-4.082H73.547a2.041,2.041,0,0,1,0,4.082Z" transform="translate(-10.129 -21.031)" fill="#8dc63f"/>
      <path id="Path_48" data-name="Path 48" d="M64.376,134.414a2.041,2.041,0,0,1,0-4.082h6.331a2.041,2.041,0,0,1,0,4.082Z" transform="translate(-10.892 -22.774)" fill="#8dc63f"/>
      <path id="Path_49" data-name="Path 49" d="M68.024,54.2a2.087,2.087,0,0,1-1.853-2.1V45.514a2.086,2.086,0,0,1,1.853-2.1,2.043,2.043,0,0,1,2.229,2.032v6.721A2.044,2.044,0,0,1,68.024,54.2" transform="translate(-11.563 -7.584)" fill="#8dc63f"/>
      <path id="Path_50" data-name="Path 50" d="M51.656,58.644a2.048,2.048,0,0,1-1.769-1.021L46.526,51.8a2.041,2.041,0,1,1,3.535-2.041l3.36,5.821a2.042,2.042,0,0,1-1.765,3.062" transform="translate(-8.082 -8.517)" fill="#8dc63f"/>
      <path id="Path_51" data-name="Path 51" d="M39.531,70.765a2.041,2.041,0,0,1-1.018-.274l-5.821-3.36A2.041,2.041,0,1,1,34.733,63.6l5.821,3.36a2.041,2.041,0,0,1-1.022,3.809" transform="translate(-5.534 -11.065)" fill="#8dc63f"/>
      <path id="Path_52" data-name="Path 52" d="M28.376,87.322a2.041,2.041,0,1,1,0-4.082H35.1a2.041,2.041,0,0,1,0,4.082Z" transform="translate(-4.602 -14.545)" fill="#8dc63f"/>
      <path id="Path_53" data-name="Path 53" d="M33.714,106.529a2.049,2.049,0,0,1-1.769-1.021,2.041,2.041,0,0,1,.747-2.788l5.821-3.36a2.041,2.041,0,1,1,2.041,3.535l-5.821,3.361a2.042,2.042,0,0,1-1.018.274" transform="translate(-5.534 -17.314)" fill="#8dc63f"/>
      <path id="Path_54" data-name="Path 54" d="M101.476,106.529a2.042,2.042,0,0,1-1.018-.274l-5.821-3.361a2.041,2.041,0,1,1,2.041-3.535l5.821,3.36a2.041,2.041,0,0,1-1.022,3.809" transform="translate(-16.358 -17.314)" fill="#8dc63f"/>
      <path id="Path_55" data-name="Path 55" d="M99.9,87.322a2.041,2.041,0,0,1,0-4.082h6.721a2.041,2.041,0,0,1,0,4.082Z" transform="translate(-17.1 -14.545)" fill="#8dc63f"/>
      <path id="Path_56" data-name="Path 56" d="M95.659,70.765a2.048,2.048,0,0,1-1.769-1.021,2.041,2.041,0,0,1,.747-2.788l5.821-3.36a2.041,2.041,0,1,1,2.041,3.535l-5.821,3.36a2.041,2.041,0,0,1-1.018.274" transform="translate(-16.358 -11.065)" fill="#8dc63f"/>
      <path id="Path_57" data-name="Path 57" d="M84.055,58.644a2.041,2.041,0,0,1-1.765-3.062l3.36-5.821A2.041,2.041,0,0,1,89.185,51.8l-3.36,5.821a2.048,2.048,0,0,1-1.769,1.021" transform="translate(-14.331 -8.517)" fill="#8dc63f"/>
    </g>
  </g>
</svg>
