<svg id="Group_1534" data-name="Group 1534" xmlns="http://www.w3.org/2000/svg" xmlns:xlink="http://www.w3.org/1999/xlink" width="312.5" height="99.821" viewBox="0 0 312.5 99.821">
  <defs>
    <clipPath id="clip-path">
      <rect id="Rectangle_4" data-name="Rectangle 4" width="312.5" height="99.821" fill="#8dc63f"/>
    </clipPath>
  </defs>
  <path id="Path_1" data-name="Path 1" d="M167.455,45.688h14.093V31.2h9.761v37.55h-9.761V53.257H167.455V68.746h-9.761V31.2h9.761Z" transform="translate(-49.991 -9.889)" fill="#fff"/>
  <path id="Path_2" data-name="Path 2" d="M239.3,39.462H227.7v6.275h10.956V54H227.7v6.475h11.6v8.267H217.939V31.2H239.3Z" transform="translate(-69.089 -9.889)" fill="#fff"/>
  <path id="Path_3" data-name="Path 3" d="M260,68.746V31.2h9.761l18.029,22.959V31.2H297.5V68.746h-9.711L269.758,45.787V68.746Z" transform="translate(-82.422 -9.889)" fill="#fff"/>
  <path id="Path_4" data-name="Path 4" d="M335.579,60.487V31.223l-9.761,4.808V68.754h21.465V60.487Z" transform="translate(-103.289 -9.898)" fill="#fff"/>
  <path id="Path_5" data-name="Path 5" d="M388.562,39.462h-11.6v6.275h10.957V54H376.958v6.475h11.6v8.267H367.2V31.2h21.365Z" transform="translate(-116.406 -9.889)" fill="#fff"/>
  <path id="Path_6" data-name="Path 6" d="M428.628,31.2l-6.922,10.259L414.733,31.2H403.08l13.7,19.522V68.746h9.761V50.718L440.281,31.2Z" transform="translate(-127.782 -9.889)" fill="#fff"/>
  <g id="Group_2" data-name="Group 2">
    <g id="Group_1" data-name="Group 1" clip-path="url(#clip-path)">
      <path id="Path_7" data-name="Path 7" d="M166.675,100.81l-.9.69a4.915,4.915,0,0,0-1.787-1.47,5.231,5.231,0,0,0-2.291-.5,5.062,5.062,0,0,0-2.528.655,4.706,4.706,0,0,0-1.8,1.76,4.874,4.874,0,0,0-.639,2.485,4.662,4.662,0,0,0,1.43,3.481,4.955,4.955,0,0,0,3.609,1.4,5.075,5.075,0,0,0,4.009-1.876l.9.682a5.75,5.75,0,0,1-2.129,1.679,6.675,6.675,0,0,1-2.849.594,5.926,5.926,0,0,1-4.721-1.993,6.01,6.01,0,0,1-1.45-4.063,5.65,5.65,0,0,1,1.756-4.214,6.054,6.054,0,0,1,4.4-1.71,6.457,6.457,0,0,1,2.885.632,5.609,5.609,0,0,1,2.109,1.772" transform="translate(-49.303 -31.196)" fill="#8dc63f"/>
      <path id="Path_8" data-name="Path 8" d="M180.4,98.406a5.919,5.919,0,0,1,4.337,1.729,6,6,0,0,1-4.244,10.25,5.839,5.839,0,0,1-4.282-1.737,5.706,5.706,0,0,1-1.746-4.2,6.074,6.074,0,0,1,.8-3.047,5.78,5.78,0,0,1,2.168-2.2,5.838,5.838,0,0,1,2.972-.795m.051,1.109a4.87,4.87,0,0,0-4.17,2.436,4.94,4.94,0,0,0-.637,2.491,4.8,4.8,0,0,0,4.808,4.835,4.878,4.878,0,0,0,2.458-.644,4.617,4.617,0,0,0,1.763-1.761,4.956,4.956,0,0,0,.632-2.483,4.833,4.833,0,0,0-.632-2.456,4.722,4.722,0,0,0-1.783-1.757,4.816,4.816,0,0,0-2.438-.66" transform="translate(-55.306 -31.196)" fill="#8dc63f"/>
      <path id="Path_9" data-name="Path 9" d="M199.6,98.826l5.319,11.406h-1.231l-1.794-3.753h-4.913l-1.776,3.753H193.93l5.389-11.406Zm-.144,2.424-1.954,4.129h3.9Z" transform="translate(-61.478 -31.329)" fill="#8dc63f"/>
      <path id="Path_10" data-name="Path 10" d="M222.984,100.81l-.9.69a4.917,4.917,0,0,0-1.788-1.47,5.226,5.226,0,0,0-2.291-.5,5.062,5.062,0,0,0-2.528.655,4.706,4.706,0,0,0-1.8,1.76,4.867,4.867,0,0,0-.639,2.485,4.664,4.664,0,0,0,1.429,3.481,4.958,4.958,0,0,0,3.61,1.4,5.075,5.075,0,0,0,4.009-1.876l.9.682a5.75,5.75,0,0,1-2.129,1.679,6.678,6.678,0,0,1-2.849.594,5.926,5.926,0,0,1-4.721-1.993,6.01,6.01,0,0,1-1.45-4.063,5.648,5.648,0,0,1,1.756-4.214,6.053,6.053,0,0,1,4.4-1.71,6.459,6.459,0,0,1,2.885.632,5.609,5.609,0,0,1,2.109,1.772" transform="translate(-67.154 -31.196)" fill="#8dc63f"/>
      <path id="Path_11" data-name="Path 11" d="M231.485,98.826h1.14v4.784h5.807V98.826h1.14v11.406h-1.14v-5.5h-5.807v5.5h-1.14Z" transform="translate(-73.384 -31.329)" fill="#8dc63f"/>
      <rect id="Rectangle_2" data-name="Rectangle 2" width="1.14" height="11.406" transform="translate(168.802 67.497)" fill="#8dc63f"/>
      <path id="Path_12" data-name="Path 12" d="M252.658,110.232V98.826h.248l7.591,8.744V98.826h1.124v11.406h-.255l-7.529-8.637v8.637Z" transform="translate(-80.096 -31.329)" fill="#8dc63f"/>
      <path id="Path_13" data-name="Path 13" d="M280.625,100.609l-.884.837a6.767,6.767,0,0,0-2.09-1.423,5.621,5.621,0,0,0-2.214-.484,5.282,5.282,0,0,0-2.555.658,4.787,4.787,0,0,0-1.88,1.787,4.619,4.619,0,0,0-.667,2.384,4.706,4.706,0,0,0,.69,2.446,4.912,4.912,0,0,0,1.908,1.822,5.5,5.5,0,0,0,2.668.663,4.56,4.56,0,0,0,2.977-.993,3.914,3.914,0,0,0,1.442-2.574h-3.636v-1.1H281.3a5.718,5.718,0,0,1-1.57,4.2,5.619,5.619,0,0,1-4.159,1.554,6.247,6.247,0,0,1-5.008-2.156,5.724,5.724,0,0,1-1.419-3.838,5.88,5.88,0,0,1,.814-3.016,5.8,5.8,0,0,1,2.233-2.183,6.508,6.508,0,0,1,3.211-.787,7.137,7.137,0,0,1,2.729.524,8.147,8.147,0,0,1,2.5,1.679" transform="translate(-85.322 -31.196)" fill="#8dc63f"/>
      <path id="Path_14" data-name="Path 14" d="M296.545,98.826h2.272a13.114,13.114,0,0,1,2.637.171,2.934,2.934,0,0,1,1.6.988,3.191,3.191,0,0,1,.016,3.761,2.973,2.973,0,0,1-1.667,1,14.7,14.7,0,0,1-2.9.186h-.814v5.3h-1.14Zm1.14,1.117v3.869l1.931.023a5.047,5.047,0,0,0,1.714-.212,1.759,1.759,0,0,0,.853-.688,1.907,1.907,0,0,0,.31-1.065,1.881,1.881,0,0,0-.31-1.048,1.712,1.712,0,0,0-.818-.677,4.927,4.927,0,0,0-1.663-.2Z" transform="translate(-94.009 -31.329)" fill="#8dc63f"/>
      <path id="Path_15" data-name="Path 15" d="M312.123,98.826l5.318,11.406h-1.231l-1.794-3.753H309.5l-1.777,3.753h-1.271l5.389-11.406Zm-.144,2.424-1.954,4.129h3.9Z" transform="translate(-97.15 -31.329)" fill="#8dc63f"/>
      <path id="Path_16" data-name="Path 16" d="M325.661,98.826h2.272a13.733,13.733,0,0,1,2.575.156,2.94,2.94,0,0,1,1.651,1,2.847,2.847,0,0,1,.635,1.883,3.04,3.04,0,0,1-.438,1.638,2.736,2.736,0,0,1-1.252,1.067,5.755,5.755,0,0,1-2.249.369l4.1,5.3h-1.41l-4.1-5.3H326.8v5.3h-1.14Zm1.14,1.117v3.877l1.965.015a4.888,4.888,0,0,0,1.689-.217,1.763,1.763,0,0,0,.854-.694,1.932,1.932,0,0,0,.307-1.066,1.85,1.85,0,0,0-.311-1.044,1.724,1.724,0,0,0-.816-.67,4.947,4.947,0,0,0-1.677-.2Z" transform="translate(-103.239 -31.329)" fill="#8dc63f"/>
      <path id="Path_17" data-name="Path 17" d="M338.381,99.943V98.826h6.249v1.117h-2.543v10.289h-1.162V99.943Z" transform="translate(-107.271 -31.329)" fill="#8dc63f"/>
      <path id="Path_18" data-name="Path 18" d="M349.949,110.232V98.826h.248l7.591,8.744V98.826h1.124v11.406h-.255l-7.529-8.637v8.637Z" transform="translate(-110.938 -31.329)" fill="#8dc63f"/>
      <path id="Path_19" data-name="Path 19" d="M367.148,98.826h6.535v1.117h-5.4v3.575h5.35v1.117h-5.35v4.481h5.35v1.117h-6.49Z" transform="translate(-116.391 -31.329)" fill="#8dc63f"/>
      <path id="Path_20" data-name="Path 20" d="M380.573,98.826h2.272a13.734,13.734,0,0,1,2.575.156,2.94,2.94,0,0,1,1.651,1,2.848,2.848,0,0,1,.635,1.883,3.04,3.04,0,0,1-.438,1.638,2.735,2.735,0,0,1-1.252,1.067,5.754,5.754,0,0,1-2.249.369l4.1,5.3h-1.41l-4.1-5.3h-.644v5.3h-1.14Zm1.14,1.117v3.877l1.965.015a4.888,4.888,0,0,0,1.689-.217,1.763,1.763,0,0,0,.854-.694,1.932,1.932,0,0,0,.307-1.066,1.85,1.85,0,0,0-.311-1.044,1.724,1.724,0,0,0-.815-.67,4.948,4.948,0,0,0-1.677-.2Z" transform="translate(-120.647 -31.329)" fill="#8dc63f"/>
      <path id="Path_21" data-name="Path 21" d="M393.088,107.975l.969-.582q1.024,1.884,2.365,1.884a2.276,2.276,0,0,0,1.078-.267,1.9,1.9,0,0,0,.767-.718,1.852,1.852,0,0,0,.264-.954,1.931,1.931,0,0,0-.389-1.124,9.266,9.266,0,0,0-1.953-1.83,10,10,0,0,1-1.776-1.558,2.851,2.851,0,0,1-.6-1.745,2.641,2.641,0,0,1,.357-1.356,2.541,2.541,0,0,1,1-.966,2.9,2.9,0,0,1,1.407-.353,3,3,0,0,1,1.508.4,5.152,5.152,0,0,1,1.485,1.47l-.93.706a4.458,4.458,0,0,0-1.1-1.125,1.892,1.892,0,0,0-.988-.271,1.567,1.567,0,0,0-1.128.419,1.37,1.37,0,0,0-.438,1.031,1.741,1.741,0,0,0,.156.721,2.656,2.656,0,0,0,.566.76q.225.217,1.473,1.14a8.3,8.3,0,0,1,2.032,1.945,3.139,3.139,0,0,1,.55,1.714,2.908,2.908,0,0,1-.941,2.155,3.166,3.166,0,0,1-2.292.915,3.359,3.359,0,0,1-1.884-.554,5.072,5.072,0,0,1-1.559-1.857" transform="translate(-124.614 -31.196)" fill="#8dc63f"/>
      <path id="Path_22" data-name="Path 22" d="M405.931,98.826h1.14v4.784h5.807V98.826h1.14v11.406h-1.14v-5.5H407.07v5.5h-1.14Z" transform="translate(-128.685 -31.329)" fill="#8dc63f"/>
      <rect id="Rectangle_3" data-name="Rectangle 3" width="1.14" height="11.406" transform="translate(287.946 67.497)" fill="#8dc63f"/>
      <path id="Path_23" data-name="Path 23" d="M427.3,98.826h2.272a13.113,13.113,0,0,1,2.637.171,2.935,2.935,0,0,1,1.6.988,3.192,3.192,0,0,1,.016,3.761,2.973,2.973,0,0,1-1.667,1,14.7,14.7,0,0,1-2.9.186h-.814v5.3H427.3Zm1.14,1.117v3.869l1.931.023a5.047,5.047,0,0,0,1.714-.212,1.759,1.759,0,0,0,.853-.688,1.907,1.907,0,0,0,.31-1.065,1.881,1.881,0,0,0-.31-1.048,1.712,1.712,0,0,0-.818-.677,4.926,4.926,0,0,0-1.663-.2Z" transform="translate(-135.46 -31.329)" fill="#8dc63f"/>
      <path id="Path_24" data-name="Path 24" d="M71.21,56.809c0-6.488-3.024-12.314-7.891-15.2l-1.067-.632-1.068.632c-4.867,2.888-7.891,8.713-7.891,15.2,0,6.01,2.617,11.419,6.867,14.483l.068,26.65a2.091,2.091,0,0,0,4.182-.011l-.068-26.639c4.25-3.065,6.867-8.473,6.867-14.483m-13.734,0a13.932,13.932,0,0,1,4.776-10.87,13.932,13.932,0,0,1,4.775,10.87,13.932,13.932,0,0,1-4.775,10.87,13.933,13.933,0,0,1-4.776-10.87" transform="translate(-16.895 -12.99)" fill="#8dc63f"/>
      <path id="Path_25" data-name="Path 25" d="M79.125,112.157V108.29h3.17a13.94,13.94,0,0,0,13.94-13.94V84.37H88.883a13.94,13.94,0,0,0-13.94,13.94v13.847a13.939,13.939,0,0,0,13.94,13.94H90.9a2.09,2.09,0,0,0,0-4.18H88.885a9.76,9.76,0,0,1-9.76-9.76m0-13.847a9.76,9.76,0,0,1,9.76-9.76h3.168v5.8a9.76,9.76,0,0,1-9.76,9.76H79.125Z" transform="translate(-23.758 -26.746)" fill="#8dc63f"/>
      <path id="Path_26" data-name="Path 26" d="M34.056,74.626H26.7v9.981A13.939,13.939,0,0,0,40.643,98.546h3.17v10.993a9.76,9.76,0,0,1-9.76,9.76H32.043a2.09,2.09,0,0,0,0,4.18h2.013A13.939,13.939,0,0,0,48,109.539V88.566a13.94,13.94,0,0,0-13.94-13.94m9.758,19.74h-3.17a9.758,9.758,0,0,1-9.758-9.758v-5.8h3.17a9.758,9.758,0,0,1,9.758,9.758Z" transform="translate(-8.466 -23.657)" fill="#8dc63f"/>
      <path id="Path_27" data-name="Path 27" d="M92.982,23.453,93,23.44c-.04-.064-.092-.121-.133-.184A47.371,47.371,0,0,0,52.127,0C39.364,0,28.368,3.887,18.91,13.6a2.714,2.714,0,0,0-.023,3.933,3.667,3.667,0,0,0,2.555.927h.044a4.584,4.584,0,0,0,1.83-.442c1.587-.671,3.159-1.39,4.73-2.108A67.352,67.352,0,0,1,39.4,11.5a20.82,20.82,0,0,1,12.528.312,10.376,10.376,0,0,1-4.112.824c-.721-.012-1.444-.092-2.164-.169a16.168,16.168,0,0,0-5.073.057,8.178,8.178,0,0,0-6.24,6.025,2.821,2.821,0,0,0,1.543,3.4,12.261,12.261,0,0,0,5.541,1.082,16.974,16.974,0,0,1,3.532-.066,16.943,16.943,0,0,1,4.029,1.263c.713.288,1.428.575,2.153.823a21.765,21.765,0,0,0,7.022,1.144A22.44,22.44,0,0,0,70.519,22.53c.494-.329.982-.682,1.468-1.036a11.409,11.409,0,0,1,3.947-2.18,7.546,7.546,0,0,1,3.336.186c5.057,1.212,8.4,3.138,10.241,5.869A43.366,43.366,0,0,1,69.821,86.99a1.968,1.968,0,0,0-1.012,2.526,1.994,1.994,0,0,0,2.677,1.072,47.324,47.324,0,0,0,21.5-67.135M75.092,15.439a14.717,14.717,0,0,0-5.435,2.846c-.443.322-.885.644-1.337.945a18.474,18.474,0,0,1-15.9,2.065c-.658-.225-1.306-.488-1.955-.749a20.138,20.138,0,0,0-5-1.518,20.332,20.332,0,0,0-4.369.047,22.336,22.336,0,0,1-2.861.12,4.841,4.841,0,0,1,3.244-2.81,11.739,11.739,0,0,1,3.756.023c.84.089,1.684.178,2.522.191a14.966,14.966,0,0,0,9.4-3.355L59.179,11.6l-2.125-1.511c-4.711-3.353-11.5-4.24-18.626-2.433A68.106,68.106,0,0,0,26.955,12.05,43.257,43.257,0,0,1,82.3,16.216c-.675-.2-1.373-.4-2.1-.573a11.4,11.4,0,0,0-5.1-.2" transform="translate(-5.717 0)" fill="#8dc63f"/>
      <path id="Path_28" data-name="Path 28" d="M65.538,137.256a2.845,2.845,0,1,0-2.845-2.845,2.845,2.845,0,0,0,2.845,2.845" transform="translate(-19.875 -41.708)" fill="#8dc63f"/>
      <path id="Path_29" data-name="Path 29" d="M29.329,98.882a2.017,2.017,0,0,0-.842-2.77A45.431,45.431,0,0,1,4.1,56.258C3.991,44.795,6.443,39.738,10.273,33.3A1.977,1.977,0,0,0,9.5,30.625L9.458,30.6a2.094,2.094,0,0,0-2.821.813C2.305,38.206-.147,43.722.007,56.258A49.651,49.651,0,0,0,26.6,99.735a2.03,2.03,0,0,0,2.713-.817l.02-.036" transform="translate(0 -9.616)" fill="#8dc63f"/>
    </g>
  </g>
</svg>
