<svg xmlns="http://www.w3.org/2000/svg" xmlns:xlink="http://www.w3.org/1999/xlink" width="113.299" height="112.974" viewBox="0 0 113.299 112.974">
  <defs>
    <clipPath id="clip-path">
      <rect id="Rectangle_12" data-name="Rectangle 12" width="113.299" height="112.974" fill="none"/>
    </clipPath>
  </defs>
  <g id="Group_1558" data-name="Group 1558" transform="translate(0)">
    <g id="Group_1510" data-name="Group 1510" transform="translate(0)" clip-path="url(#clip-path)">
      <path id="Path_36" data-name="Path 36" d="M108.594,28.338l.024-.016c-.049-.078-.111-.146-.161-.222A57.239,57.239,0,0,0,59.229,0C43.807,0,30.52,4.695,19.093,16.429a3.28,3.28,0,0,0-.027,4.753A4.431,4.431,0,0,0,22.153,22.3h.053a5.539,5.539,0,0,0,2.211-.534c1.918-.81,3.818-1.679,5.716-2.548a81.382,81.382,0,0,1,13.722-5.325c5.6-1.423,10.915-1.264,15.138.377a12.538,12.538,0,0,1-4.968,1c-.871-.014-1.745-.111-2.615-.2a19.537,19.537,0,0,0-6.13.068,9.882,9.882,0,0,0-7.54,7.28,3.409,3.409,0,0,0,1.864,4.1,14.815,14.815,0,0,0,6.7,1.307,20.51,20.51,0,0,1,4.268-.08,20.472,20.472,0,0,1,4.868,1.526c.862.347,1.726.7,2.6.994a26.3,26.3,0,0,0,8.485,1.382,27.115,27.115,0,0,0,14.93-4.424c.6-.4,1.187-.824,1.774-1.252A13.786,13.786,0,0,1,88,23.336a9.118,9.118,0,0,1,4.031.224c6.11,1.465,10.155,3.791,12.374,7.091A52.4,52.4,0,0,1,80.609,105.11a2.378,2.378,0,0,0-1.223,3.053,2.41,2.41,0,0,0,3.235,1.3,57.182,57.182,0,0,0,25.974-81.12M86.978,18.654a17.783,17.783,0,0,0-6.567,3.439c-.535.39-1.07.778-1.616,1.142a22.322,22.322,0,0,1-19.208,2.5c-.8-.272-1.578-.589-2.362-.9a24.333,24.333,0,0,0-6.048-1.834,24.568,24.568,0,0,0-5.279.057,26.989,26.989,0,0,1-3.457.145,5.849,5.849,0,0,1,3.919-3.4,14.185,14.185,0,0,1,4.538.027c1.015.108,2.035.215,3.048.231A18.084,18.084,0,0,0,65.3,16l2.446-1.986-2.567-1.826C59.489,8.14,51.291,7.068,42.676,9.251a82.293,82.293,0,0,0-13.863,5.307,52.268,52.268,0,0,1,66.873,5.035c-.816-.248-1.66-.48-2.543-.692a13.77,13.77,0,0,0-6.164-.247" transform="translate(-3.151)" fill="#8dc63f"/>
      <path id="Path_37" data-name="Path 37" d="M35.438,113.161a2.437,2.437,0,0,0-1.018-3.346A54.9,54.9,0,0,1,4.96,61.659C4.822,47.807,7.785,41.7,12.414,33.92a2.389,2.389,0,0,0-.932-3.234l-.054-.031a2.53,2.53,0,0,0-3.409.982C2.785,39.846-.177,46.511.008,61.659a59.994,59.994,0,0,0,32.128,52.533,2.453,2.453,0,0,0,3.278-.987l.024-.044" transform="translate(0 -5.3)" fill="#8dc63f"/>
      <path id="Path_38" data-name="Path 38" d="M67.685,120.847a2.476,2.476,0,0,1-2.476-2.476V47.536a2.476,2.476,0,0,1,4.952,0v70.836a2.476,2.476,0,0,1-2.476,2.476" transform="translate(-11.394 -7.874)" fill="#8dc63f"/>
      <path id="Path_39" data-name="Path 39" d="M78.686,120.978A2.476,2.476,0,0,1,76.21,118.5V78.614l13.8-22.188a2.475,2.475,0,1,1,4.2,2.614L81.162,80.029V118.5a2.476,2.476,0,0,1-2.476,2.476" transform="translate(-13.317 -9.656)" fill="#8dc63f"/>
      <path id="Path_40" data-name="Path 40" d="M53.841,122.725a2.476,2.476,0,0,1-2.476-2.476V90.029L38.314,69.041a2.476,2.476,0,0,1,4.2-2.614l13.8,22.188v31.635a2.476,2.476,0,0,1-2.476,2.476" transform="translate(-6.63 -11.403)" fill="#8dc63f"/>
      <path id="Path_41" data-name="Path 41" d="M73.69,55a2.469,2.469,0,0,1-1.751-.725l-5.867-5.868L60.2,54.273a2.476,2.476,0,1,1-3.5-3.5l9.369-9.37,9.369,9.37A2.476,2.476,0,0,1,73.69,55" transform="translate(-9.781 -7.234)" fill="#8dc63f"/>
      <path id="Path_42" data-name="Path 42" d="M97.6,66.471a2.477,2.477,0,0,1-2.395-1.854l-2.084-8.032L85.09,58.667a2.476,2.476,0,0,1-1.244-4.792l12.826-3.327L100,63.373a2.479,2.479,0,0,1-2.4,3.1" transform="translate(-14.327 -8.833)" fill="#8dc63f"/>
      <path id="Path_43" data-name="Path 43" d="M33.756,75.138a2.479,2.479,0,0,1-2.4-3.1l3.327-12.825L47.51,62.542a2.476,2.476,0,1,1-1.244,4.792l-8.031-2.083-2.084,8.032a2.477,2.477,0,0,1-2.395,1.854" transform="translate(-5.465 -10.347)" fill="#8dc63f"/>
    </g>
  </g>
</svg>
