<svg id="Group_1537" data-name="Group 1537" xmlns="http://www.w3.org/2000/svg" xmlns:xlink="http://www.w3.org/1999/xlink" width="16.792" height="17.108" viewBox="0 0 16.792 17.108">
  <defs>
    <clipPath id="clip-path">
      <rect id="Rectangle_40" data-name="Rectangle 40" width="16.792" height="17.108" fill="#fff"/>
    </clipPath>
  </defs>
  <g id="Group_1520" data-name="Group 1520" clip-path="url(#clip-path)">
    <path id="Path_1483" data-name="Path 1483" d="M6.108,4.327,5.088.632C4.795-.428,2.572.05,1.8.588-1.455,2.861.357,7.449,2.131,10.1q4.869,6.473,9.54,6.91c2.472.437,5.395-.643,5.1-3.569a2.122,2.122,0,0,0-.281-.941q-.365-.507-4.269-1.414-.749-.133-1.554.854a2.333,2.333,0,0,1-.246.266.828.828,0,0,1-1.147.191c-1.466-.78-4.028-3.973-4.62-4.961A.833.833,0,0,1,5.04,6.366,1.987,1.987,0,0,0,6.108,4.327" transform="translate(0 0)" fill="#fff" fill-rule="evenodd"/>
  </g>
</svg>
