<svg id="Group_1536" data-name="Group 1536" xmlns="http://www.w3.org/2000/svg" width="15.144" height="14.161" viewBox="0 0 15.144 14.161">
  <path id="Path_7" data-name="Path 7" d="M878.144,441.162v5.479H874.9v-5.112c0-1.284-.469-2.16-1.644-2.16a1.771,1.771,0,0,0-1.665,1.162,2.124,2.124,0,0,0-.108.774v5.336h-3.247s.044-8.658,0-9.555h3.247v1.354c-.007.01-.016.021-.021.031h.021v-.031a3.235,3.235,0,0,1,2.926-1.578c2.136,0,3.738,1.365,3.738,4.3Zm-13.307-8.681a1.659,1.659,0,1,0-.043,3.3h.021a1.659,1.659,0,1,0,.021-3.3Zm-1.644,14.161h3.245v-9.555h-3.245Zm0,0" transform="translate(-863 -432.48)" fill="#fff"/>
</svg>
